<svg xmlns="http://www.w3.org/2000/svg" viewBox="0 0 331.86 516.33"><defs><style>.cls-1{fill:#d0e9e5;}.cls-2{fill:#31b5aa;}.cls-3{fill:#126962;}.cls-4{fill:#9ed4cd;}.cls-5{fill:#73c4bc;}</style></defs><title>Element 4</title><g id="Ebene_2" data-name="Ebene 2"><g id="Ebene_1-2" data-name="Ebene 1"><path class="cls-1" d="M316,226.68v-.18A158,158,0,0,0,47.46,117.23,157.16,157.16,0,0,0,0,226.5v.18A246.61,246.61,0,0,0,246.6,473.33H316Z"/><path class="cls-2" d="M184,28.83a28.83,28.83,0,1,0-37,27.64v62.12H162.7V56.66A28.83,28.83,0,0,0,184,28.83Z"/><path class="cls-3" d="M141.78,268.48,152,244.54a7.52,7.52,0,0,0-6.91-10.47H124.63a7.52,7.52,0,0,0-6.91,10.47L128,268.48A7.51,7.51,0,0,0,141.78,268.48Z"/><path class="cls-4" d="M288,481.43h-71.9a10,10,0,0,0-10,10h0a10,10,0,0,0,10,10h80.17Z"/><path class="cls-3" d="M173.38,35.63a19.72,19.72,0,0,0-33.55-19.58Z"/><path class="cls-3" d="M136.26,22.25a19.73,19.73,0,0,0,33.48,19.54Z"/><path class="cls-5" d="M248.36,473.36h22.91c-35.95-105.7-137.52-164.52-258.85-170,16.5,46.36,31.32,69.41,66.52,103C124.19,449.57,184.36,473.36,248.36,473.36Z"/><path class="cls-5" d="M133.28,158.9a1.45,1.45,0,0,0,2,.1c7.7-7,63.17-47.73,110.76-4.58,46.29,42,61.87,81.79,68.32,91.72a.56.56,0,0,0,1-.3c0-6.11-.08-21.29-.28-25.63-.24-5.46-1.46-14.17-1.46-14.17A158.08,158.08,0,0,0,157.38,71.51c-41.57,0-81.27,15.55-110.52,45.08C35,128.58,27.92,140,21.71,150.05c-1.77,2.87-2.24,4.1-3.4,6.07C38.89,136.94,90.81,113.41,133.28,158.9Z"/><path class="cls-2" d="M331.86,260.49V503.7c0,13.55-17.87,18.84-26.63,2.42l-80.1-200.25c-15.87-39.67,14.48-82.35,58.56-82.35h7.6C312.18,223.52,331.86,242.24,331.86,260.49Z"/><path class="cls-3" d="M290.59,255.37a12.91,12.91,0,0,0-22-12.82Z"/><path class="cls-3" d="M266.29,246.61a12.92,12.92,0,0,0,21.92,12.8Z"/><path class="cls-3" d="M81.38,161.52a33.33,33.33,0,1,0,33.32,33.32H81.38Z"/><path class="cls-3" d="M189.56,161.52a33.33,33.33,0,1,0,33.32,33.32H189.56Z"/></g></g></svg>